<?xml version="1.0" encoding="utf-8"?>
<!-- Generator: Adobe Illustrator 19.0.0, SVG Export Plug-In . SVG Version: 6.00 Build 0)  -->
<svg version="1.1" id="Layer_1" xmlns="http://www.w3.org/2000/svg" xmlns:xlink="http://www.w3.org/1999/xlink" x="0px" y="0px"
	 viewBox="0 0 106.7 77.3" style="enable-background:new 0 0 106.7 77.3;" xml:space="preserve">
<style type="text/css">
	.st0{fill:#FFFFFF;}
	.st1{fill:#231F20;}
	.st2{fill:#010202;}
</style>
<g id="XMLID_2_">
	<g id="XMLID_37_">
		<g id="XMLID_38_">
			<g id="XMLID_40_">
				<g id="XMLID_41_">
					<path id="XMLID_49_" class="st0" d="M79.7,42.6c-2.2,0.8-2.2,0.9-2.2,2.9c0,0.4,0,0.9,0,1.3c0.1,1.2,1,2.4,2.1,2.6
						c0.6,0.1,1.2,0.1,1.8,0.1c1.5,0,2.6-0.9,2.7-2.4c0.2-2.3,0.3-4.6-0.9-6.7c-0.9-1.7-1.7-3.5-2.6-5.2c-0.8-1.5-0.9-3.1-0.8-4.8
						c0-0.7,0.5-1.2,1.1-1.1c0.6,0,1,0.5,1,1.2c0,0.7,0,1.3,0,2c0,0.1-0.1,0.4,0.2,0.4c0.5,0,1.9-1,2-1.5c0.2-0.9,0.1-1.8-0.3-2.6
						c-0.7-1.4-1.9-1.6-3.3-1.5c-1.6,0.1-2.8,0.9-2.9,2.5c-0.2,2.1-0.2,4.1,0.8,6c0.6,1.2,1.2,2.4,1.8,3.6c1.3,2.2,1.9,4.4,1.6,6.9
						c-0.1,0.9-0.8,1.4-1.5,1c-0.5-0.3-0.6-0.7-0.6-1.2C79.7,45,79.7,43.9,79.7,42.6z M98.9,27.6c-2.6,0-5.1,0-7.5,0
						c-1.6,0-1.6,0-1.6,1.7c0,0.5,0.1,0.7,0.6,0.6c0.5-0.1,1.1,0,1.6,0c0.6-0.1,0.8,0.1,0.8,0.8c0,5.9,0,11.9,0,17.8
						c0,0.9,0,0.9,1.4,0.9c0.8,0,0.8-0.3,0.8-0.9c0-5.9,0-11.8,0-17.7c0-0.8,0.3-1,1-1c0.5,0,1,0,1.5,0c0.4,0,0.7-0.2,0.8-0.6
						C98.4,28.7,98.6,28.2,98.9,27.6z M53.4,38.3c0,3.4,0,6.7,0,10.1c0,0.7,0.2,1,1,0.9c0.2,0,0.3,0,0.5,0c0.7,0.1,0.8-0.2,0.8-0.8
						c0-6.5,0-12.9,0-19.4c0-1.4-0.1-1.5-1.5-1.6c-0.5,0-0.7,0.1-0.7,0.7C53.5,31.6,53.4,35,53.4,38.3z M70.4,30.3
						c0-1.9-1.1-2.9-3-3c-0.4,0-0.8,0-1.2,0c-1.5,0.1-2.6,1.2-2.6,2.7c0,5.6,0,11.2,0,16.8c0,1.4,1,2.5,2.4,2.6c0.4,0,0.9,0,1.3,0
						c2.1,0,3.1-1,3.1-3.1c0-2.7,0-5.3,0-8C70.4,35.7,70.4,33,70.4,30.3z M68.2,46.1c0,1-0.4,1.4-1.2,1.5c-0.9,0-1.3-0.5-1.3-1.4
						c0-2.6,0-5.1,0-7.7c0-2.5,0-5,0-7.5c0-1,0.4-1.5,1.3-1.5c0.8,0,1.2,0.5,1.2,1.5C68.2,36,68.2,41,68.2,46.1z"/>
					<path id="XMLID_45_" class="st1" d="M70.4,30.3c0-1.9-1.1-2.9-3-3c-0.4,0-0.8,0-1.2,0c-1.5,0.1-2.6,1.2-2.6,2.7
						c0,5.6,0,11.2,0,16.8c0,1.4,1,2.5,2.4,2.6c0.4,0,0.9,0,1.3,0c2.1,0,3.1-1,3.1-3.1c0-2.7,0-5.3,0-8C70.4,35.7,70.4,33,70.4,30.3
						z M68.2,46.1c0,1-0.4,1.4-1.2,1.5c-0.9,0-1.3-0.5-1.3-1.4c0-2.6,0-5.1,0-7.7c0-2.5,0-5,0-7.5c0-1,0.4-1.5,1.3-1.5
						c0.8,0,1.2,0.5,1.2,1.5C68.2,36,68.2,41,68.2,46.1z"/>
					<path id="XMLID_44_" class="st1" d="M79.7,42.6c0,1.3,0,2.4,0,3.6c0,0.5,0.1,1,0.6,1.2c0.7,0.4,1.4-0.2,1.5-1
						c0.3-2.5-0.4-4.8-1.6-6.9c-0.7-1.2-1.2-2.4-1.8-3.6c-1-1.9-1-4-0.8-6c0.1-1.6,1.3-2.4,2.9-2.5c1.4,0,2.6,0.2,3.3,1.5
						c0.4,0.8,0.5,1.7,0.3,2.6c-0.1,0.6-1.4,1.5-2,1.5c-0.3,0-0.2-0.2-0.2-0.4c0-0.7,0-1.3,0-2c0-0.7-0.4-1.2-1-1.2
						c-0.6,0-1.1,0.4-1.1,1.1c-0.1,1.7,0,3.3,0.8,4.8c0.9,1.7,1.7,3.5,2.6,5.2c1.1,2.1,1.1,4.4,0.9,6.7c-0.1,1.5-1.2,2.3-2.7,2.4
						c-0.6,0-1.2,0-1.8-0.1c-1.1-0.2-2-1.3-2.1-2.6c0-0.4,0-0.9,0-1.3C77.5,43.5,77.5,43.4,79.7,42.6z"/>
					<path id="XMLID_43_" class="st1" d="M98.9,27.6c-0.3,0.6-0.5,1.1-0.7,1.7c-0.2,0.4-0.5,0.6-0.8,0.6c-0.5,0-1,0.1-1.5,0
						c-0.7-0.1-1,0.2-1,1c0,5.9,0,11.8,0,17.7c0,0.6,0,0.9-0.8,0.9c-1.4-0.1-1.4,0-1.4-0.9c0-5.9,0-11.9,0-17.8
						c0-0.6-0.2-0.8-0.8-0.8c-0.5,0.1-1.1,0-1.6,0c-0.5,0-0.6-0.2-0.6-0.6c0-1.7,0-1.7,1.6-1.7C93.8,27.6,96.3,27.6,98.9,27.6z"/>
					<path id="XMLID_42_" class="st1" d="M53.4,38.3c0-3.4,0-6.7,0-10.1c0-0.5,0.1-0.7,0.7-0.7c1.4,0,1.5,0.1,1.5,1.6
						c0,6.5,0,12.9,0,19.4c0,0.7-0.1,1-0.8,0.8c-0.1,0-0.3,0-0.5,0c-0.7,0.1-1-0.2-1-0.9C53.5,45.1,53.4,41.7,53.4,38.3z"/>
				</g>
			</g>
		</g>
	</g>
</g>
<path id="XMLID_7_" class="st2" d="M25.7,18L7.8,28.4V49l17.9,10.3L43.5,49V28.4L25.7,18z M26,51.4l-13.7-7.8l0.1-3.8L26,47.6
	l6.6-3.8l-4.4-2.5l-1.7,1l-3.1-1.8l1.7-1l-2.2-1.3L21.6,39l-3.1-1.8l1.3-0.8l-7-4L26,24.8l12.4,7.1l-3.3,1.9L26,28.6l-6.6,3.8
	l3.7,2.1l1.9-1.1l3.1,1.8l-1.9,1.1l2.2,1.3l1.5-0.9l3.1,1.8l-1.6,0.9l7.7,4.5L26,51.4L26,51.4z"/>
</svg>
