<?xml version="1.0" encoding="utf-8"?>
<!-- Generator: Adobe Illustrator 19.0.0, SVG Export Plug-In . SVG Version: 6.00 Build 0)  -->
<svg version="1.1" id="Layer_1" xmlns="http://www.w3.org/2000/svg" xmlns:xlink="http://www.w3.org/1999/xlink" x="0px" y="0px"
	 viewBox="0 0 156.7 113.3" style="enable-background:new 0 0 156.7 113.3;" xml:space="preserve">
<style type="text/css">
	.st0{fill:#231F20;}
	.st1{fill:url(#XMLID_79_);}
	.st2{fill:#FFFFFF;}
	.st3{clip-path:url(#XMLID_80_);}
	.st4{fill:none;}
	.st5{fill:url(#XMLID_81_);}
	.st6{fill:url(#XMLID_82_);}
	.st7{fill:url(#XMLID_83_);}
	.st8{fill:url(#XMLID_84_);}
	.st9{fill:url(#XMLID_85_);}
</style>
<g id="XMLID_2_">
	<g id="XMLID_56_">
		<polygon id="XMLID_64_" class="st0" points="101.4,56.4 72.2,73.2 43,56.4 43,22.7 72.2,5.8 101.4,22.7 		"/>
		<g id="XMLID_58_">
			
				<linearGradient id="XMLID_79_" gradientUnits="userSpaceOnUse" x1="-256.8233" y1="289.062" x2="-212.9435" y2="349.1081" gradientTransform="matrix(0 1 1 0 -246.8783 274.4113)">
				<stop  offset="0" style="stop-color:#62BC9C"/>
				<stop  offset="1" style="stop-color:#454898"/>
			</linearGradient>
			<path id="XMLID_59_" class="st1" d="M48.1,63l24.1,13.9l32.4-18.7V20.8L72.2,2.1L39.8,20.8v37.4L48.1,63 M43.5,22.8L70.5,7.3
				v31.2L43.5,54.2L43.5,22.8z M99.1,57.2l-27,15.6L45.2,57.2l-0.1-0.1l27-15.7h0L99.1,57.2C99.1,57.1,99.2,57.1,99.1,57.2z
				 M100.9,23v31.2L73.9,38.6L73.9,7.3L100.9,23z"/>
		</g>
		<polygon id="XMLID_57_" class="st2" points="89.2,46 81.8,41.7 85,40 82.3,38.4 82.3,38.4 80.6,37.4 79.6,36.9 76.6,38.7 
			72.9,36.6 76.1,34.8 74.4,33.9 70.8,31.8 67.7,33.5 61.5,30 72.9,23.4 79,27 80.7,28 80.8,28 87.9,32.1 88.2,32.3 93.4,29.2 
			78.2,20.4 72.9,17.4 67.6,20.4 56.2,27 50.9,30 56.2,33 62.4,36.6 59.3,38.4 64.6,41.4 67.7,39.7 71.3,41.7 68.2,43.5 73.4,46.6 
			76.6,44.8 83.9,49 72.5,55.6 65.2,51.3 59.8,48.3 56.3,46.2 51,43.2 49.9,42.6 49.9,43.8 49.9,48.6 51,49.3 54.5,51.3 59.8,54.4 
			67.2,58.7 72.5,61.7 77.8,58.7 89.2,52.1 94.5,49 		"/>
	</g>
	<g id="XMLID_37_">
		<g id="XMLID_38_">
			<defs>
				<rect id="XMLID_39_" x="2.5" y="83" width="55.8" height="28"/>
			</defs>
			<clipPath id="XMLID_80_">
				<use xlink:href="#XMLID_39_"  style="overflow:visible;"/>
			</clipPath>
			<g id="XMLID_40_" class="st3">
				<g id="XMLID_41_">
					<path id="XMLID_49_" class="st2" d="M35.6,101.2c-2.2,0.8-2.2,0.9-2.2,2.9c0,0.4,0,0.9,0,1.3c0.1,1.2,1,2.4,2.1,2.6
						c0.6,0.1,1.2,0.1,1.8,0.1c1.5,0,2.6-0.9,2.7-2.4c0.2-2.3,0.3-4.6-0.9-6.7c-0.9-1.7-1.7-3.5-2.6-5.2c-0.8-1.5-0.9-3.1-0.8-4.8
						c0-0.7,0.5-1.2,1.1-1.1c0.6,0,1,0.5,1,1.2c0,0.7,0,1.3,0,2c0,0.1-0.1,0.4,0.2,0.4c0.5,0,1.9-1,2-1.5c0.2-0.9,0.1-1.8-0.3-2.6
						c-0.7-1.4-1.9-1.6-3.3-1.5c-1.6,0.1-2.8,0.9-2.9,2.5c-0.2,2.1-0.2,4.1,0.8,6c0.6,1.2,1.2,2.4,1.8,3.6c1.3,2.2,1.9,4.4,1.6,6.9
						c-0.1,0.9-0.8,1.4-1.5,1c-0.5-0.3-0.6-0.7-0.6-1.2C35.6,103.6,35.6,102.4,35.6,101.2z M54.8,86.1c-2.6,0-5.1,0-7.5,0
						c-1.6,0-1.6,0-1.6,1.7c0,0.5,0.1,0.7,0.6,0.6c0.5-0.1,1.1,0,1.6,0c0.6-0.1,0.8,0.1,0.8,0.8c0,5.9,0,11.9,0,17.8
						c0,0.9,0,0.9,1.4,0.9c0.8,0,0.8-0.3,0.8-0.9c0-5.9,0-11.8,0-17.7c0-0.8,0.3-1,1-1c0.5,0,1,0,1.5,0c0.4,0,0.7-0.2,0.8-0.6
						C54.3,87.3,54.5,86.8,54.8,86.1z M9.4,96.9c0,3.4,0,6.7,0,10.1c0,0.7,0.2,1,1,0.9c0.2,0,0.3,0,0.5,0c0.7,0.1,0.8-0.2,0.8-0.8
						c0-6.5,0-12.9,0-19.4c0-1.4-0.1-1.5-1.5-1.6c-0.5,0-0.7,0.1-0.7,0.7C9.4,90.2,9.4,93.5,9.4,96.9z M26.3,88.9c0-1.9-1.1-2.9-3-3
						c-0.4,0-0.8,0-1.2,0c-1.5,0.1-2.6,1.2-2.6,2.7c0,5.6,0,11.2,0,16.8c0,1.4,1,2.5,2.4,2.6c0.4,0,0.9,0,1.3,0c2.1,0,3.1-1,3.1-3.1
						c0-2.7,0-5.3,0-8C26.3,94.3,26.3,91.6,26.3,88.9z M24.1,104.6c0,1-0.4,1.4-1.2,1.5c-0.9,0-1.3-0.5-1.3-1.4c0-2.6,0-5.1,0-7.7
						c0-2.5,0-5,0-7.5c0-1,0.4-1.5,1.3-1.5c0.8,0,1.2,0.5,1.2,1.5C24.1,94.5,24.1,99.6,24.1,104.6z"/>
					<path id="XMLID_45_" class="st0" d="M26.3,88.9c0-1.9-1.1-2.9-3-3c-0.4,0-0.8,0-1.2,0c-1.5,0.1-2.6,1.2-2.6,2.7
						c0,5.6,0,11.2,0,16.8c0,1.4,1,2.5,2.4,2.6c0.4,0,0.9,0,1.3,0c2.1,0,3.1-1,3.1-3.1c0-2.7,0-5.3,0-8
						C26.3,94.3,26.3,91.6,26.3,88.9z M24.1,104.6c0,1-0.4,1.4-1.2,1.5c-0.9,0-1.3-0.5-1.3-1.4c0-2.6,0-5.1,0-7.7c0-2.5,0-5,0-7.5
						c0-1,0.4-1.5,1.3-1.5c0.8,0,1.2,0.5,1.2,1.5C24.1,94.5,24.1,99.6,24.1,104.6z"/>
					<path id="XMLID_44_" class="st0" d="M35.6,101.2c0,1.3,0,2.4,0,3.6c0,0.5,0.1,1,0.6,1.2c0.7,0.4,1.4-0.2,1.5-1
						c0.3-2.5-0.4-4.8-1.6-6.9c-0.7-1.2-1.2-2.4-1.8-3.6c-1-1.9-1-4-0.8-6c0.1-1.6,1.3-2.4,2.9-2.5c1.4,0,2.6,0.2,3.3,1.5
						c0.4,0.8,0.5,1.7,0.3,2.6c-0.1,0.6-1.4,1.5-2,1.5c-0.3,0-0.2-0.2-0.2-0.4c0-0.7,0-1.3,0-2c0-0.7-0.4-1.2-1-1.2
						c-0.6,0-1.1,0.4-1.1,1.1c-0.1,1.7,0,3.3,0.8,4.8c0.9,1.7,1.7,3.5,2.6,5.2c1.1,2.1,1.1,4.4,0.9,6.7c-0.1,1.5-1.2,2.3-2.7,2.4
						c-0.6,0-1.2,0-1.8-0.1c-1.1-0.2-2-1.3-2.1-2.6c0-0.4,0-0.9,0-1.3C33.4,102,33.4,102,35.6,101.2z"/>
					<path id="XMLID_43_" class="st0" d="M54.8,86.1c-0.3,0.6-0.5,1.1-0.7,1.7c-0.2,0.4-0.5,0.6-0.8,0.6c-0.5,0-1,0.1-1.5,0
						c-0.7-0.1-1,0.2-1,1c0,5.9,0,11.8,0,17.7c0,0.6,0,0.9-0.8,0.9c-1.4-0.1-1.4,0-1.4-0.9c0-5.9,0-11.9,0-17.8
						c0-0.6-0.2-0.8-0.8-0.8c-0.5,0.1-1.1,0-1.6,0c-0.5,0-0.6-0.2-0.6-0.6c0-1.7,0-1.7,1.6-1.7C49.7,86.1,52.2,86.1,54.8,86.1z"/>
					<path id="XMLID_42_" class="st0" d="M9.4,96.9c0-3.4,0-6.7,0-10.1c0-0.5,0.1-0.7,0.7-0.7c1.4,0,1.5,0.1,1.5,1.6
						c0,6.5,0,12.9,0,19.4c0,0.7-0.1,1-0.8,0.8c-0.1,0-0.3,0-0.5,0c-0.7,0.1-1-0.2-1-0.9C9.4,103.6,9.4,100.3,9.4,96.9z"/>
				</g>
			</g>
		</g>
	</g>
	<g id="XMLID_4_">
		<g id="XMLID_20_">
			<path id="XMLID_33_" class="st0" d="M75.3,92.3c0.5,0.5,0.8,1.2,0.8,1.9c0,0.8-0.3,1.4-0.8,1.9C74.7,96.7,74,97,73.1,97l0,0h-3.9
				V86.8h4c0.6,0,1.2,0.3,1.7,0.8c0.5,0.5,0.8,1.2,0.8,1.9s-0.3,1.4-0.8,1.9c-0.1,0.1-0.2,0.2-0.4,0.3C74.9,92,75.1,92.2,75.3,92.3z
				 M70.1,87.6v3.9h3c0.5,0,1-0.2,1.4-0.6c0.4-0.4,0.6-0.8,0.6-1.4s-0.2-1-0.6-1.4c-0.4-0.4-0.8-0.6-1.4-0.6L70.1,87.6L70.1,87.6z
				 M73.3,96.2c0.5,0,1-0.2,1.4-0.6c0.4-0.4,0.6-0.9,0.6-1.4s-0.2-1-0.6-1.4c-0.4-0.4-0.8-0.6-1.4-0.6h-3.2v3.9L73.3,96.2L73.3,96.2
				z"/>
			<path id="XMLID_32_" class="st0" d="M78.5,96.2H84V97h-6.3V86.8h0.8V96.2z"/>
			<path id="XMLID_29_" class="st4" d="M87.9,96.8c-0.6-0.3-1.2-0.7-1.7-1.1c-0.5-0.5-0.9-1-1.1-1.7c-0.3-0.7-0.4-1.3-0.4-2.1
				s0.1-1.4,0.4-2.1c0.3-0.6,0.7-1.2,1.1-1.7c0.5-0.5,1-0.9,1.7-1.1c0.7-0.3,1.3-0.4,2.1-0.4c0.7,0,1.4,0.1,2.1,0.4
				c0.6,0.3,1.2,0.6,1.7,1.1c0.5,0.5,0.9,1,1.1,1.7s0.4,1.3,0.4,2.1s-0.1,1.4-0.4,2.1c-0.3,0.6-0.6,1.2-1.1,1.7
				c-0.5,0.5-1,0.9-1.7,1.1c-0.7,0.3-1.3,0.4-2.1,0.4C89.2,97.2,88.5,97.1,87.9,96.8z M86.8,88.7c-0.9,0.9-1.3,2-1.3,3.2
				c0,1.2,0.4,2.3,1.3,3.2c0.9,0.9,2,1.3,3.2,1.3c1.2,0,2.3-0.4,3.2-1.3c0.9-0.9,1.3-2,1.3-3.2c0-1.2-0.4-2.3-1.3-3.2
				c-0.9-0.9-1.9-1.3-3.2-1.3C88.7,87.3,87.6,87.8,86.8,88.7z"/>
			<path id="XMLID_28_" class="st0" d="M102.3,96.5c0.9,0,1.6-0.2,2.4-0.7c0.7-0.4,1.2-1,1.6-1.6l0.7,0.3c-0.4,0.8-1,1.4-1.8,1.9
				c-0.9,0.5-1.8,0.8-2.9,0.8c-0.7,0-1.4-0.1-2.1-0.4c-0.6-0.3-1.2-0.7-1.7-1.1c-0.5-0.5-0.9-1-1.1-1.7c-0.3-0.7-0.4-1.3-0.4-2.1
				s0.1-1.4,0.4-2.1c0.3-0.6,0.7-1.2,1.1-1.7c0.5-0.5,1-0.9,1.7-1.1c0.7-0.3,1.3-0.4,2.1-0.4c1,0,2,0.3,2.9,0.8
				c0.8,0.5,1.4,1.2,1.8,1.9l-0.7,0.3c-0.3-0.6-0.8-1.2-1.6-1.6c-0.7-0.5-1.5-0.7-2.4-0.7c-1.2,0-2.3,0.4-3.2,1.3
				c-0.9,0.9-1.3,2-1.3,3.2s0.4,2.3,1.3,3.2C100,96,101.1,96.5,102.3,96.5z"/>
			<path id="XMLID_27_" class="st0" d="M110.9,91.8l5.2,5.2H115l-4.6-4.6l-1.1,1.1V97h-0.8V86.8h0.8v5.6l5.6-5.6h1.1L110.9,91.8z"/>
			<path id="XMLID_24_" class="st0" d="M117.4,97V86.8h3.4c0.7,0,1.4,0.1,2,0.4c0.6,0.3,1.2,0.6,1.6,1.1c0.5,0.5,0.8,1,1.1,1.6
				c0.3,0.6,0.4,1.3,0.4,2s-0.1,1.3-0.4,2c-0.3,0.6-0.6,1.1-1.1,1.6s-1,0.8-1.6,1.1c-0.6,0.3-1.3,0.4-2,0.4L117.4,97L117.4,97z
				 M120.8,96.2c1.2,0,2.2-0.4,3.1-1.3c0.8-0.8,1.3-1.9,1.3-3.1c0-1.2-0.4-2.2-1.3-3.1c-0.8-0.8-1.9-1.3-3.1-1.3h-2.7v8.7H120.8z"/>
			<path id="XMLID_23_" class="st0" d="M133.6,96.2V97h-6V86.8h6v0.8h-5.2v3.9h4.2v0.8h-4.2v4L133.6,96.2L133.6,96.2z"/>
			<path id="XMLID_22_" class="st0" d="M138.8,95.1l3.4-8.4h0.9l-4.2,10.5l-4.3-10.5h0.9L138.8,95.1z"/>
			<path id="XMLID_21_" class="st0" d="M148.1,97.2c-0.8,0-1.6-0.2-2.3-0.6c-0.8-0.5-1.3-1.1-1.6-1.9l0.8-0.2
				c0.2,0.6,0.6,1.1,1.2,1.4c0.5,0.3,1.2,0.5,1.9,0.5c0.1,0,0.2,0,0.3,0c0.1,0,0.2,0,0.3,0c0.3,0,0.6-0.1,0.8-0.2
				c0.8-0.3,1.2-0.9,1.2-1.8c0-0.4-0.1-0.8-0.4-1.2c-0.4-0.5-1.2-0.8-2.1-0.9c-1.5-0.1-2.6-0.4-3.3-1c-0.5-0.4-0.7-1-0.7-1.7
				c0-0.9,0.4-1.7,1.1-2.2c0.7-0.5,1.5-0.8,2.4-0.8c1.1,0,2.1,0.4,2.9,1.2c0.2,0.3,0.4,0.5,0.6,0.9c0.1,0.1,0.1,0.2,0.1,0.3
				l-0.7,0.3c0,0-0.1-0.1-0.2-0.3c-0.1-0.2-0.2-0.3-0.4-0.5c-0.6-0.6-1.4-1-2.3-1c-0.3,0-0.5,0-0.8,0.1c-0.3,0.1-0.6,0.2-0.9,0.3
				c-0.7,0.4-1,1-1,1.8c0,1.1,1.1,1.8,3.2,1.9c1.2,0.1,2.1,0.5,2.7,1.1c0.4,0.5,0.6,1.1,0.6,1.8c-0.1,0.9-0.5,1.6-1.2,2.1
				C149.7,97,149,97.2,148.1,97.2L148.1,97.2z"/>
		</g>
		<g id="XMLID_14_">
			
				<linearGradient id="XMLID_81_" gradientUnits="userSpaceOnUse" x1="86.281" y1="746.9907" x2="93.6888" y2="757.1279" gradientTransform="matrix(1 0 0 -1 0 844)">
				<stop  offset="0" style="stop-color:#62BC9C"/>
				<stop  offset="1" style="stop-color:#454898"/>
			</linearGradient>
			<path id="XMLID_15_" class="st5" d="M93.9,96l2.3-4.1l-3.2-5.5h-6.3l-3.2,5.5l3.2,5.5h6.3L93.9,96 M87.2,96.8l-2.6-4.5h5.3
				l2.7,4.6L87.2,96.8z M92.9,87.4l2.7,4.6L93,96.5l0,0l-2.7-4.6l0,0L92.9,87.4L92.9,87.4z M87.2,87.1h5.3l-2.6,4.5h-5.3L87.2,87.1z
				"/>
		</g>
		<g id="XMLID_5_">
			
				<linearGradient id="XMLID_82_" gradientUnits="userSpaceOnUse" x1="71.9824" y1="738.6208" x2="83.9561" y2="750.5945" gradientTransform="matrix(1 0 0 -1 0 844)">
				<stop  offset="0" style="stop-color:#62BC9C"/>
				<stop  offset="1" style="stop-color:#454898"/>
			</linearGradient>
			<path id="XMLID_11_" class="st6" d="M75.7,107.1h-1.3l-0.5-1.3h-2.7l-0.5,1.3h-1.3l3.2-7.8L75.7,107.1z M73.5,104.7l-0.9-2.2
				l-0.9,2.2H73.5z"/>
			
				<linearGradient id="XMLID_83_" gradientUnits="userSpaceOnUse" x1="74.7098" y1="735.8934" x2="86.6835" y2="747.8671" gradientTransform="matrix(1 0 0 -1 0 844)">
				<stop  offset="0" style="stop-color:#62BC9C"/>
				<stop  offset="1" style="stop-color:#454898"/>
			</linearGradient>
			<path id="XMLID_10_" class="st7" d="M79.5,107.3c-0.6,0-1.2-0.1-1.7-0.4c-0.6-0.4-1-0.9-1.3-1.7l1.1-0.3c0.1,0.5,0.4,0.9,0.8,1.1
				c0.3,0.2,0.7,0.3,1.1,0.3c0.1,0,0.1,0,0.2,0s0.1,0,0.2,0c0.2,0,0.3-0.1,0.5-0.1c0.4-0.2,0.6-0.5,0.6-0.9c0-0.2,0-0.4-0.2-0.6
				c-0.2-0.3-0.6-0.4-1.2-0.5c-1.1-0.1-1.8-0.3-2.3-0.8c-0.4-0.3-0.6-0.8-0.6-1.3c0-0.7,0.3-1.3,0.9-1.7c0.5-0.4,1.1-0.6,1.8-0.6
				c0.8,0,1.5,0.3,2.1,0.9c0.2,0.2,0.3,0.4,0.5,0.6c0,0.1,0.1,0.2,0.2,0.5l-1.1,0.4c-0.1-0.2-0.2-0.3-0.2-0.4
				c-0.1-0.1-0.1-0.2-0.2-0.3c-0.3-0.4-0.8-0.5-1.3-0.5c-0.2,0-0.3,0-0.5,0.1c-0.2,0-0.4,0.1-0.5,0.2c-0.4,0.2-0.5,0.5-0.5,0.9
				c0,0.6,0.6,0.9,1.8,1c0.9,0.1,1.5,0.3,2,0.9c0.3,0.4,0.5,0.9,0.5,1.4c-0.1,0.7-0.4,1.2-0.9,1.6C80.7,107.1,80.2,107.3,79.5,107.3
				L79.5,107.3z"/>
			
				<linearGradient id="XMLID_84_" gradientUnits="userSpaceOnUse" x1="76.9491" y1="733.6541" x2="88.9228" y2="745.6278" gradientTransform="matrix(1 0 0 -1 0 844)">
				<stop  offset="0" style="stop-color:#62BC9C"/>
				<stop  offset="1" style="stop-color:#454898"/>
			</linearGradient>
			<path id="XMLID_9_" class="st8" d="M83.3,107.1v-7.5h1.2v7.5H83.3z"/>
			
				<linearGradient id="XMLID_85_" gradientUnits="userSpaceOnUse" x1="79.9862" y1="730.6171" x2="91.9599" y2="742.5908" gradientTransform="matrix(1 0 0 -1 0 844)">
				<stop  offset="0" style="stop-color:#62BC9C"/>
				<stop  offset="1" style="stop-color:#454898"/>
			</linearGradient>
			<path id="XMLID_6_" class="st9" d="M91.7,107.1h-1.3l-0.5-1.3h-2.7l-0.5,1.3h-1.3l3.2-7.8L91.7,107.1z M89.5,104.7l-0.9-2.2
				l-0.9,2.2H89.5z"/>
		</g>
	</g>
	<rect id="XMLID_3_" x="62" y="85.4" class="st0" width="0.4" height="23"/>
</g>
</svg>
